# This file uses centimeters as units for non-parametric coordinates.

mtllib a.mtl
g default
v 16.119532 0.000000 0.224803
v 15.332005 0.000000 -4.747450
v 13.046512 0.000000 -9.232983
v 9.486772 0.000000 -12.792724
v 5.001237 0.000000 -15.078218
v 0.028984 0.000000 -15.865746
v -4.943269 0.000000 -15.078219
v -9.428804 0.000000 -12.792726
v -12.988544 0.000000 -9.232985
v -15.274038 0.000000 -4.747450
v -16.061567 0.000000 0.224803
v -15.274040 0.000000 5.197057
v -12.988546 0.000000 9.682593
v -9.428805 0.000000 13.242334
v -4.943270 0.000000 15.527828
v 0.028985 0.000000 16.315357
v 5.001240 0.000000 15.527829
v 9.486775 0.000000 13.242335
v 13.046516 0.000000 9.682594
v 15.332010 0.000000 5.197058
v 16.119532 0.857261 0.224803
v 15.332005 0.857261 -4.747450
v 13.046512 0.857261 -9.232983
v 9.486772 0.857261 -12.792724
v 5.001237 0.857261 -15.078218
v 0.028984 0.857261 -15.865746
v -4.943269 0.857261 -15.078219
v -9.428804 0.857261 -12.792726
v -12.988544 0.857261 -9.232985
v -15.274038 0.857261 -4.747450
v -16.061567 0.857261 0.224803
v -15.274040 0.857261 5.197057
v -12.988546 0.857261 9.682593
v -9.428805 0.857261 13.242334
v -4.943270 0.857261 15.527828
v 0.028985 0.857261 16.315357
v 5.001240 0.857261 15.527829
v 9.486775 0.857261 13.242335
v 13.046516 0.857261 9.682594
v 15.332010 0.857261 5.197058
v 19.219532 0.857261 0.224803
v 18.280281 0.857261 -5.705403
v 15.554465 0.857261 -11.055119
v 11.308907 0.857261 -15.300679
v 5.959191 0.857261 -18.026496
v 0.028984 0.857261 -18.965749
v -5.901222 0.857261 -18.026496
v -11.250939 0.857261 -15.300679
v -15.496499 0.857261 -11.055120
v -18.222317 0.857261 -5.705404
v -19.161569 0.857261 0.224804
v -18.222317 0.857261 6.155011
v -15.496500 0.857261 11.504728
v -11.250941 0.857261 15.750287
v -5.901224 0.857261 18.476106
v 0.028983 0.857261 19.415359
v 5.959191 0.857261 18.476106
v 11.308909 0.857261 15.750289
v 15.554470 0.857261 11.504730
v 18.280289 0.857261 6.155013
v 19.219532 0.000000 0.224803
v 18.280281 0.000000 -5.705403
v 15.554465 0.000000 -11.055119
v 11.308907 0.000000 -15.300679
v 5.959191 0.000000 -18.026496
v 0.028984 0.000000 -18.965749
v -5.901222 0.000000 -18.026496
v -11.250939 0.000000 -15.300679
v -15.496499 0.000000 -11.055120
v -18.222317 0.000000 -5.705404
v -19.161569 0.000000 0.224804
v -18.222317 0.000000 6.155011
v -15.496500 0.000000 11.504728
v -11.250941 0.000000 15.750287
v -5.901224 0.000000 18.476106
v 0.028983 0.000000 19.415359
v 5.959191 0.000000 18.476106
v 11.308909 0.000000 15.750289
v 15.554470 0.000000 11.504730
v 18.280289 0.000000 6.155013
v 2.400860 4.107686 -0.890309
v -2.571394 4.107686 -0.102782
v 2.400860 4.964947 -0.890309
v -2.571394 4.964947 -0.102782
v -2.303413 4.119894 1.589191
v 2.668842 4.119894 0.801663
v -2.303413 4.977156 1.589191
v 2.668842 4.977156 0.801663
v 0.733234 -1.210188 2.661752
v -0.054293 -1.210188 -2.310501
v 0.733234 -0.352927 2.661752
v -0.054293 -0.352927 -2.310501
v -1.511262 -1.160667 -2.079737
v -0.723735 -1.160667 2.892517
v -1.511262 -0.303406 -2.079737
v -0.723735 -0.303406 2.892517
vt 0.000000 1.000000
vt 0.050000 1.000000
vt 0.100000 1.000000
vt 0.150000 1.000000
vt 0.200000 1.000000
vt 0.250000 1.000000
vt 0.300000 1.000000
vt 0.350000 1.000000
vt 0.400000 1.000000
vt 0.450000 1.000000
vt 0.500000 1.000000
vt 0.550000 1.000000
vt 0.600000 1.000000
vt 0.650000 1.000000
vt 0.700000 1.000000
vt 0.750000 1.000000
vt 0.800000 1.000000
vt 0.850000 1.000000
vt 0.900000 1.000000
vt 0.950000 1.000000
vt 1.000000 1.000000
vt 0.000000 0.750000
vt 0.050000 0.750000
vt 0.100000 0.750000
vt 0.150000 0.750000
vt 0.200000 0.750000
vt 0.250000 0.750000
vt 0.300000 0.750000
vt 0.350000 0.750000
vt 0.400000 0.750000
vt 0.450000 0.750000
vt 0.500000 0.750000
vt 0.550000 0.750000
vt 0.600000 0.750000
vt 0.650000 0.750000
vt 0.700000 0.750000
vt 0.750000 0.750000
vt 0.800000 0.750000
vt 0.850000 0.750000
vt 0.900000 0.750000
vt 0.950000 0.750000
vt 1.000000 0.750000
vt 0.000000 0.500000
vt 0.050000 0.500000
vt 0.100000 0.500000
vt 0.150000 0.500000
vt 0.200000 0.500000
vt 0.250000 0.500000
vt 0.300000 0.500000
vt 0.350000 0.500000
vt 0.400000 0.500000
vt 0.450000 0.500000
vt 0.500000 0.500000
vt 0.550000 0.500000
vt 0.600000 0.500000
vt 0.650000 0.500000
vt 0.700000 0.500000
vt 0.750000 0.500000
vt 0.800000 0.500000
vt 0.850000 0.500000
vt 0.900000 0.500000
vt 0.950000 0.500000
vt 1.000000 0.500000
vt 0.000000 0.250000
vt 0.050000 0.250000
vt 0.100000 0.250000
vt 0.150000 0.250000
vt 0.200000 0.250000
vt 0.250000 0.250000
vt 0.300000 0.250000
vt 0.350000 0.250000
vt 0.400000 0.250000
vt 0.450000 0.250000
vt 0.500000 0.250000
vt 0.550000 0.250000
vt 0.600000 0.250000
vt 0.650000 0.250000
vt 0.700000 0.250000
vt 0.750000 0.250000
vt 0.800000 0.250000
vt 0.850000 0.250000
vt 0.900000 0.250000
vt 0.950000 0.250000
vt 1.000000 0.250000
vt 0.000000 0.000000
vt 0.050000 0.000000
vt 0.100000 0.000000
vt 0.150000 0.000000
vt 0.200000 0.000000
vt 0.250000 0.000000
vt 0.300000 0.000000
vt 0.350000 0.000000
vt 0.400000 0.000000
vt 0.450000 0.000000
vt 0.500000 0.000000
vt 0.550000 0.000000
vt 0.600000 0.000000
vt 0.650000 0.000000
vt 0.700000 0.000000
vt 0.750000 0.000000
vt 0.800000 0.000000
vt 0.850000 0.000000
vt 0.900000 0.000000
vt 0.950000 0.000000
vt 1.000000 0.000000
vt 0.300000 1.000000
vt 0.250000 1.000000
vt 0.250000 0.750000
vt 0.300000 0.750000
vt 0.800000 1.000000
vt 0.750000 1.000000
vt 0.750000 0.750000
vt 0.800000 0.750000
vt 0.050000 1.000000
vt 0.000000 1.000000
vt 0.000000 0.750000
vt 0.050000 0.750000
vt 0.550000 1.000000
vt 0.500000 1.000000
vt 0.500000 0.750000
vt 0.550000 0.750000
vn -0.987688 0.000000 0.156434
vn -0.987688 0.000000 0.156434
vn -0.987688 0.000000 0.156434
vn -0.987688 0.000000 0.156434
vn -0.809017 0.000000 0.587785
vn -0.891007 0.000000 0.453990
vn -0.891007 0.000000 0.453990
vn -0.809017 0.000000 0.587785
vn -0.587785 0.000000 0.809017
vn -0.587785 0.000000 0.809017
vn -0.309017 0.000000 0.951057
vn -0.309017 0.000000 0.951057
vn -0.156434 0.000000 0.987688
vn -0.156434 0.000000 0.987688
vn 0.156434 0.000000 0.987688
vn 0.156434 0.000000 0.987688
vn 0.156434 0.000000 0.987688
vn 0.156434 0.000000 0.987688
vn 0.587785 0.000000 0.809017
vn 0.453990 0.000000 0.891007
vn 0.453990 0.000000 0.891007
vn 0.587785 0.000000 0.809017
vn 0.809017 0.000000 0.587785
vn 0.809017 0.000000 0.587785
vn 0.951057 0.000000 0.309017
vn 0.951057 0.000000 0.309017
vn 0.987688 0.000000 0.156435
vn 0.987688 0.000000 0.156435
vn 0.987688 0.000000 -0.156434
vn 0.987688 0.000000 -0.156434
vn 0.987688 0.000000 -0.156434
vn 0.987688 0.000000 -0.156434
vn 0.809017 0.000000 -0.587785
vn 0.891007 0.000000 -0.453990
vn 0.891007 0.000000 -0.453990
vn 0.809017 0.000000 -0.587785
vn 0.587785 0.000000 -0.809017
vn 0.587785 0.000000 -0.809017
vn 0.309017 0.000000 -0.951056
vn 0.309017 0.000000 -0.951056
vn 0.156435 0.000000 -0.987688
vn 0.156435 0.000000 -0.987688
vn -0.156435 0.000000 -0.987688
vn -0.156435 0.000000 -0.987688
vn -0.156435 0.000000 -0.987688
vn -0.156435 0.000000 -0.987688
vn -0.587785 0.000000 -0.809017
vn -0.453991 0.000000 -0.891006
vn -0.453991 0.000000 -0.891006
vn -0.587785 0.000000 -0.809017
vn -0.809017 0.000000 -0.587785
vn -0.809017 0.000000 -0.587785
vn -0.951057 0.000000 -0.309016
vn -0.951057 0.000000 -0.309016
vn -0.987689 0.000000 -0.156433
vn -0.987689 0.000000 -0.156433
vn -0.051981 0.998614 0.008233
vn -0.051981 0.998614 0.008233
vn 0.000000 1.000000 -0.000000
vn 0.000000 1.000000 0.000000
vn 0.000000 1.000000 0.000000
vn 0.000000 1.000000 0.000000
vn 0.000000 1.000000 0.000000
vn 0.000000 1.000000 0.000000
vn 0.000000 1.000000 0.000000
vn 0.000000 1.000000 0.000000
vn -0.028038 0.983807 -0.177026
vn 0.000000 1.000000 -0.000000
vn -0.028038 0.983807 -0.177026
vn 0.000000 1.000000 -0.000000
vn 0.000000 1.000000 -0.000000
vn 0.000000 1.000000 -0.000000
vn 0.000000 1.000000 -0.000000
vn 0.000000 1.000000 -0.000000
vn 0.000000 1.000000 0.000000
vn 0.000000 1.000000 0.000000
vn 0.051762 0.998626 -0.008198
vn 0.000000 1.000000 0.000000
vn 0.051762 0.998626 -0.008198
vn 0.000000 1.000000 0.000000
vn 0.000000 1.000000 0.000000
vn 0.000000 1.000000 0.000000
vn 0.000000 1.000000 0.000000
vn 0.000000 1.000000 0.000000
vn 0.000000 1.000000 0.000000
vn 0.000000 1.000000 0.000000
vn 0.028427 0.983351 0.179479
vn 0.000000 1.000000 0.000000
vn 0.028427 0.983351 0.179479
vn 0.000000 1.000000 0.000000
vn 0.000000 1.000000 0.000000
vn 0.000000 1.000000 0.000000
vn 0.000000 1.000000 -0.000000
vn 0.000000 1.000000 -0.000000
vn 0.000000 1.000000 -0.000000
vn 0.000000 1.000000 -0.000000
vn 0.951057 0.000000 -0.309017
vn 1.000000 0.000000 -0.000001
vn 1.000000 0.000000 -0.000001
vn 0.951057 0.000000 -0.309017
vn 0.809017 0.000000 -0.587785
vn 0.809017 0.000000 -0.587785
vn 0.587785 0.000000 -0.809017
vn 0.587785 0.000000 -0.809017
vn 0.309017 0.000000 -0.951057
vn 0.309017 0.000000 -0.951057
vn 0.000000 0.000000 -1.000000
vn 0.000000 0.000000 -1.000000
vn -0.309017 0.000000 -0.951057
vn -0.309017 0.000000 -0.951057
vn -0.587785 0.000000 -0.809017
vn -0.587785 0.000000 -0.809017
vn -0.809017 0.000000 -0.587785
vn -0.809017 0.000000 -0.587785
vn -0.951057 0.000000 -0.309017
vn -0.951057 0.000000 -0.309017
vn -1.000000 0.000000 0.000000
vn -1.000000 0.000000 0.000000
vn -0.951057 0.000000 0.309017
vn -0.951057 0.000000 0.309017
vn -0.809017 0.000000 0.587785
vn -0.809017 0.000000 0.587785
vn -0.587785 0.000000 0.809017
vn -0.587785 0.000000 0.809017
vn -0.309017 0.000000 0.951057
vn -0.309017 0.000000 0.951057
vn 0.000000 0.000000 1.000000
vn 0.000000 0.000000 1.000000
vn 0.309017 0.000000 0.951057
vn 0.309017 0.000000 0.951057
vn 0.587785 0.000000 0.809017
vn 0.587785 0.000000 0.809017
vn 0.809017 0.000000 0.587785
vn 0.809017 0.000000 0.587785
vn 0.951057 0.000000 0.309016
vn 0.951057 0.000000 0.309016
vn 0.000000 -1.000000 0.000000
vn 0.000000 -1.000000 -0.000000
vn 0.051981 -0.998614 -0.008233
vn 0.051981 -0.998614 -0.008233
vn 0.000000 -1.000000 -0.000000
vn 0.000000 -1.000000 -0.000000
vn 0.000000 -1.000000 -0.000000
vn 0.000000 -1.000000 -0.000000
vn 0.000000 -1.000000 0.000000
vn 0.000000 -1.000000 0.000000
vn 0.000000 -1.000000 -0.000000
vn 0.028038 -0.983807 0.177026
vn 0.000000 -1.000000 -0.000000
vn 0.028038 -0.983807 0.177026
vn 0.000000 -1.000000 -0.000000
vn 0.000000 -1.000000 -0.000000
vn 0.000000 -1.000000 -0.000000
vn 0.000000 -1.000000 -0.000000
vn 0.000000 -1.000000 -0.000000
vn 0.000000 -1.000000 -0.000000
vn 0.000000 -1.000000 0.000000
vn -0.051762 -0.998626 0.008198
vn 0.000000 -1.000000 0.000000
vn -0.051762 -0.998626 0.008198
vn 0.000000 -1.000000 0.000000
vn 0.000000 -1.000000 0.000000
vn 0.000000 -1.000000 -0.000000
vn 0.000000 -1.000000 -0.000000
vn 0.000000 -1.000000 0.000000
vn 0.000000 -1.000000 0.000000
vn 0.000000 -1.000000 0.000000
vn -0.028427 -0.983351 -0.179479
vn 0.000000 -1.000000 0.000000
vn -0.028427 -0.983351 -0.179479
vn 0.000000 -1.000000 -0.000000
vn 0.000000 -1.000000 -0.000000
vn 0.000000 -1.000000 -0.000000
vn 0.000000 -1.000000 0.000000
vn 0.000000 -1.000000 0.000000
vn 0.000000 -1.000000 -0.000000
vn 0.040906 -0.965206 0.258272
vn 0.040906 -0.965206 0.258272
vn 0.987688 0.000000 -0.156434
vn 0.987688 0.000000 -0.156434
vn 0.987688 0.000000 -0.156434
vn 0.987688 0.000000 -0.156434
vn -0.040906 0.965206 -0.258272
vn -0.040906 0.965206 -0.258272
vn -0.987688 0.000000 0.156434
vn -0.987688 0.000000 0.156434
vn -0.987688 0.000000 0.156434
vn -0.987688 0.000000 0.156434
vn -0.041665 -0.963879 -0.263062
vn -0.041665 -0.963879 -0.263062
vn -0.987688 0.000000 0.156435
vn -0.987688 0.000000 0.156435
vn -0.987688 0.000000 0.156435
vn -0.987688 0.000000 0.156435
vn 0.041665 0.963879 0.263062
vn 0.041665 0.963879 0.263062
vn 0.987688 0.000000 -0.156435
vn 0.987688 0.000000 -0.156435
vn 0.987688 0.000000 -0.156435
vn 0.987688 0.000000 -0.156435
vn 0.076498 -0.996996 -0.012116
vn 0.076498 -0.996996 -0.012116
vn 0.156434 0.000000 0.987688
vn 0.156434 0.000000 0.987688
vn 0.156434 0.000000 0.987688
vn 0.156434 0.000000 0.987688
vn -0.076498 0.996996 0.012116
vn -0.076498 0.996996 0.012116
vn -0.156434 0.000000 -0.987688
vn -0.156434 0.000000 -0.987688
vn -0.156434 0.000000 -0.987688
vn -0.156434 0.000000 -0.987688
vn -0.077577 -0.996911 0.012287
vn -0.077577 -0.996911 0.012287
vn -0.156434 0.000000 -0.987688
vn -0.156434 0.000000 -0.987688
vn -0.156434 0.000000 -0.987688
vn -0.156434 0.000000 -0.987688
vn 0.077577 0.996911 -0.012287
vn 0.077577 0.996911 -0.012287
vn 0.156434 0.000000 0.987688
vn 0.156434 0.000000 0.987688
vn 0.156434 0.000000 0.987688
vn 0.156434 0.000000 0.987688
s off
g pPipe1
usemtl initialShadingGroup
f 90/114/1 89/115/2 91/116/3 92/117/4
s 1
f 3/3/5 2/2/6 22/23/7 23/24/8
f 4/4/9 3/3/5 23/24/8 24/25/10
f 5/5/11 4/4/9 24/25/10 25/26/12
f 6/6/13 5/5/11 25/26/12 26/27/14
s off
f 82/106/15 81/107/16 83/108/17 84/109/18
s 2
f 8/8/19 7/7/20 27/28/21 28/29/22
f 9/9/23 8/8/19 28/29/22 29/30/24
f 10/10/25 9/9/23 29/30/24 30/31/26
f 11/11/27 10/10/25 30/31/26 31/32/28
s off
f 94/118/29 93/119/30 95/120/31 96/121/32
s 3
f 13/13/33 12/12/34 32/33/35 33/34/36
f 14/14/37 13/13/33 33/34/36 34/35/38
f 15/15/39 14/14/37 34/35/38 35/36/40
f 16/16/41 15/15/39 35/36/40 36/37/42
s off
f 86/110/43 85/111/44 87/112/45 88/113/46
s 4
f 18/18/47 17/17/48 37/38/49 38/39/50
f 19/19/51 18/18/47 38/39/50 39/40/52
f 20/20/53 19/19/51 39/40/52 40/41/54
f 1/21/55 20/20/53 40/41/54 21/42/56
s 5
f 22/23/57 21/22/58 41/43/59 42/44/60
f 23/24/61 22/23/57 42/44/60 43/45/62
f 24/25/63 23/24/61 43/45/62 44/46/64
f 25/26/65 24/25/63 44/46/64 45/47/66
f 26/27/67 25/26/65 45/47/66 46/48/68
f 27/28/69 26/27/67 46/48/68 47/49/70
f 28/29/71 27/28/69 47/49/70 48/50/72
f 29/30/73 28/29/71 48/50/72 49/51/74
f 30/31/75 29/30/73 49/51/74 50/52/76
f 31/32/77 30/31/75 50/52/76 51/53/78
f 32/33/79 31/32/77 51/53/78 52/54/80
f 33/34/81 32/33/79 52/54/80 53/55/82
f 34/35/83 33/34/81 53/55/82 54/56/84
f 35/36/85 34/35/83 54/56/84 55/57/86
f 36/37/87 35/36/85 55/57/86 56/58/88
f 37/38/89 36/37/87 56/58/88 57/59/90
f 38/39/91 37/38/89 57/59/90 58/60/92
f 39/40/93 38/39/91 58/60/92 59/61/94
f 40/41/95 39/40/93 59/61/94 60/62/96
f 21/42/58 40/41/95 60/62/96 41/63/59
s 6
f 42/44/97 41/43/98 61/64/99 62/65/100
f 43/45/101 42/44/97 62/65/100 63/66/102
f 44/46/103 43/45/101 63/66/102 64/67/104
f 45/47/105 44/46/103 64/67/104 65/68/106
f 46/48/107 45/47/105 65/68/106 66/69/108
f 47/49/109 46/48/107 66/69/108 67/70/110
f 48/50/111 47/49/109 67/70/110 68/71/112
f 49/51/113 48/50/111 68/71/112 69/72/114
f 50/52/115 49/51/113 69/72/114 70/73/116
f 51/53/117 50/52/115 70/73/116 71/74/118
f 52/54/119 51/53/117 71/74/118 72/75/120
f 53/55/121 52/54/119 72/75/120 73/76/122
f 54/56/123 53/55/121 73/76/122 74/77/124
f 55/57/125 54/56/123 74/77/124 75/78/126
f 56/58/127 55/57/125 75/78/126 76/79/128
f 57/59/129 56/58/127 76/79/128 77/80/130
f 58/60/131 57/59/129 77/80/130 78/81/132
f 59/61/133 58/60/131 78/81/132 79/82/134
f 60/62/135 59/61/133 79/82/134 80/83/136
f 41/63/98 60/62/135 80/83/136 61/84/99
s 7
f 62/65/137 61/64/138 1/85/139 2/86/140
f 63/66/141 62/65/137 2/86/140 3/87/142
f 64/67/143 63/66/141 3/87/142 4/88/144
f 65/68/145 64/67/143 4/88/144 5/89/146
f 66/69/147 65/68/145 5/89/146 6/90/148
f 67/70/149 66/69/147 6/90/148 7/91/150
f 68/71/151 67/70/149 7/91/150 8/92/152
f 69/72/153 68/71/151 8/92/152 9/93/154
f 70/73/155 69/72/153 9/93/154 10/94/156
f 71/74/157 70/73/155 10/94/156 11/95/158
f 72/75/159 71/74/157 11/95/158 12/96/160
f 73/76/161 72/75/159 12/96/160 13/97/162
f 74/77/163 73/76/161 13/97/162 14/98/164
f 75/78/165 74/77/163 14/98/164 15/99/166
f 76/79/167 75/78/165 15/99/166 16/100/168
f 77/80/169 76/79/167 16/100/168 17/101/170
f 78/81/171 77/80/169 17/101/170 18/102/172
f 79/82/173 78/81/171 18/102/172 19/103/174
f 80/83/175 79/82/173 19/103/174 20/104/176
f 61/84/138 80/83/175 20/104/176 1/105/139
f 7/7/150 6/6/148 81/107/177 82/106/178
s off
f 6/6/179 26/27/180 83/108/181 81/107/182
s 5
f 26/27/67 27/28/69 84/109/183 83/108/184
s off
f 27/28/185 7/7/186 82/106/187 84/109/188
s 7
f 17/17/170 16/16/168 85/111/189 86/110/190
s off
f 16/16/191 36/37/192 87/112/193 85/111/194
s 5
f 36/37/87 37/38/89 88/113/195 87/112/196
s off
f 37/38/197 17/17/198 86/110/199 88/113/200
s 7
f 2/2/140 1/1/139 89/115/201 90/114/202
s off
f 1/1/203 21/22/204 91/116/205 89/115/206
s 5
f 21/22/58 22/23/57 92/117/207 91/116/208
s off
f 22/23/209 2/2/210 90/114/211 92/117/212
s 7
f 12/12/160 11/11/158 93/119/213 94/118/214
s off
f 11/11/215 31/32/216 95/120/217 93/119/218
s 5
f 31/32/77 32/33/79 96/121/219 95/120/220
s off
f 32/33/221 12/12/222 94/118/223 96/121/224
